<?xml version="1.0" standalone="no"?>
<!DOCTYPE svg PUBLIC "-//W3C//DTD SVG 20010904//EN"
 "http://www.w3.org/TR/2001/REC-SVG-20010904/DTD/svg10.dtd">
<svg version="1.0" xmlns="http://www.w3.org/2000/svg"
 width="460.000000pt" height="460.000000pt" viewBox="0 0 460.000000 460.000000"
 preserveAspectRatio="xMidYMid meet">

<g transform="translate(0.000000,460.000000) scale(0.100000,-0.100000)" stroke="none">
<path d="M0 4206 l0 -394 33 -5 c17 -2 61 -4 97 -3 36 1 74 -1 86 -5 32 -11
116 13 149 44 17 15 44 40 60 55 17 16 42 36 57 45 l26 16 -10 -37 c-6 -20
-23 -55 -39 -76 -16 -22 -29 -43 -29 -47 0 -4 15 -9 33 -11 28 -3 32 -6 32
-33 0 -27 -3 -30 -30 -28 -16 1 -43 5 -59 9 -28 7 -29 6 -22 -27 24 -113 16
-153 -28 -147 -35 5 -49 109 -21 152 14 22 14 25 -1 41 -14 14 -32 16 -113 12
-92 -4 -166 -16 -203 -32 -17 -7 -18 -34 -18 -381 l0 -374 108 -1 c99 -1 221
-5 366 -11 51 -3 60 -6 67 -27 9 -23 8 -23 -23 -15 -32 7 -84 9 -158 3 -19 -1
-91 -1 -160 0 -150 4 -200 -4 -200 -29 0 -13 6 -17 19 -13 10 2 34 0 52 -5 21
-5 64 -5 111 0 49 6 84 6 95 0 11 -7 27 -5 50 6 27 13 37 13 56 3 15 -8 53
-11 104 -9 71 3 82 1 104 -19 44 -42 74 -19 64 46 -5 25 -22 397 -30 651 -16
439 -25 784 -25 903 l0 137 -300 0 -300 0 0 -394z"/>
<path d="M1100 4500 c0 -79 -3 -102 -15 -106 -8 -3 -45 -2 -83 3 -83 11 -92 8
-92 -22 0 -32 6 -34 95 -42 106 -9 109 -13 102 -137 -2 -56 -7 -108 -11 -116
-5 -11 -18 -14 -53 -11 -36 2 -50 -1 -59 -14 -8 -10 -20 -15 -29 -12 -11 5
-15 -1 -15 -23 0 -36 0 -36 42 -10 18 11 50 20 71 20 32 0 39 -4 48 -27 15
-37 24 -463 10 -482 -7 -11 -13 -12 -23 -5 -7 6 -37 10 -67 10 -52 -1 -55 -3
-63 -31 -7 -27 1 -216 18 -399 6 -71 22 -75 25 -6 1 24 3 28 6 13 6 -32 23
-29 24 5 l1 27 8 -30 c7 -28 8 -28 9 12 1 33 7 46 32 67 17 14 34 26 39 26 4
0 11 -19 14 -42 10 -69 26 -478 26 -667 l0 -173 -32 5 c-105 18 -130 19 -139
6 -5 -8 -9 -129 -9 -270 0 -193 -3 -259 -12 -267 -12 -9 -91 -21 -167 -25 -28
-2 -37 3 -51 28 -16 30 -40 103 -40 123 0 6 21 25 48 42 83 55 123 136 89 181
-13 16 -90 30 -187 33 -30 2 -68 8 -83 14 -36 15 -79 17 -57 2 18 -12 7 -21
-58 -46 -41 -16 -43 -16 -61 3 -10 11 -32 25 -49 32 -17 7 -34 21 -37 31 -3
11 -17 20 -33 22 -15 2 -27 8 -27 13 0 15 86 24 230 23 83 -1 139 3 153 11 26
14 29 47 5 55 -10 4 -36 22 -58 41 l-40 35 60 -3 60 -2 0 125 c0 115 2 128 22
154 l23 28 -22 30 c-19 27 -25 30 -60 25 -24 -3 -54 1 -75 10 -26 10 -43 12
-62 4 -51 -19 -106 -21 -128 -6 -34 24 -163 16 -185 -10 -14 -17 -20 -19 -47
-8 -17 6 -40 9 -51 6 -10 -3 -33 0 -50 5 l-30 11 0 -155 0 -154 38 -1 c20 -1
64 -3 97 -4 82 -3 127 -12 183 -37 l47 -21 -45 -8 c-59 -10 -282 -11 -296 -1
-6 4 -14 14 -17 22 -3 8 -6 -12 -6 -45 l-1 -60 38 -2 c138 -9 161 -14 182 -43
l20 -29 -20 -6 c-15 -5 -19 -12 -15 -26 6 -18 3 -20 -29 -14 -23 5 -36 3 -36
-3 0 -6 -21 -12 -47 -14 l-48 -3 2 -38 c2 -35 1 -37 -22 -31 l-25 6 0 -126 c0
-93 3 -126 13 -127 6 -1 67 -3 135 -4 68 -2 126 -6 129 -9 12 -12 9 -76 -4
-80 -7 -3 -13 -10 -13 -16 0 -45 -92 -55 -130 -15 -29 31 -33 31 -86 -2 -41
-27 -43 -30 -44 -75 0 -49 13 -61 38 -36 17 17 26 3 13 -20 -7 -13 -18 -18
-29 -15 -16 4 -18 -6 -19 -124 0 -70 3 -117 6 -103 4 16 15 26 29 28 30 5 55
-17 48 -41 -2 -10 0 -30 6 -42 9 -19 6 -31 -11 -60 -12 -20 -20 -48 -19 -63 3
-21 -2 -27 -29 -34 l-33 -9 0 -119 c0 -135 -2 -132 85 -144 69 -10 85 -15 85
-30 0 -15 -42 -36 -70 -36 -13 0 -20 -7 -20 -18 0 -10 -3 -22 -7 -26 -14 -14
-13 -46 2 -46 8 0 15 -7 15 -15 0 -8 8 -15 18 -15 23 0 62 -40 62 -63 0 -15
-12 -17 -85 -17 l-85 0 0 -59 c0 -38 4 -61 13 -64 9 -3 9 -9 1 -23 -5 -11 -11
-38 -13 -62 -2 -40 3 -48 33 -43 4 1 17 -1 29 -5 21 -7 21 -7 1 -23 -11 -9
-25 -29 -32 -46 -14 -34 -14 -127 0 -119 5 3 2 -11 -6 -31 -14 -33 -14 -36 -1
-31 9 3 15 0 15 -9 0 -7 -9 -17 -20 -20 -14 -4 -20 -15 -20 -36 0 -24 4 -29
26 -29 14 0 35 5 47 11 20 9 21 9 4 -4 -16 -14 -16 -15 5 -21 13 -3 1034 -6
2271 -6 l2247 0 0 116 c0 107 -1 116 -17 109 -36 -14 -75 -24 -123 -30 -48 -6
-49 -6 -73 32 -13 21 -28 49 -32 62 -9 28 -59 115 -86 150 -11 13 -19 33 -18
45 0 17 3 16 11 -8 6 -16 18 -37 27 -48 9 -10 32 -48 51 -84 l35 -65 58 -3
c32 -2 60 1 63 6 3 4 27 8 55 8 l49 0 0 171 0 171 -27 -6 c-16 -3 -71 -10
-123 -16 -52 -6 -123 -14 -158 -19 l-63 -7 -15 34 c-19 47 -18 52 14 52 37 0
72 10 72 21 0 5 -27 6 -60 2 -48 -5 -60 -3 -60 8 0 8 -16 47 -35 88 -19 40
-35 77 -35 81 0 5 23 40 51 77 59 79 137 209 207 343 48 94 49 95 84 92 52 -5
65 18 33 56 -31 37 -31 48 -1 142 13 41 32 102 41 135 10 33 20 71 24 85 5 15
16 26 30 28 l22 4 -2 431 c-2 344 -5 434 -15 442 -22 17 -44 178 -44 324 1
183 6 211 36 211 l24 0 0 385 0 385 -33 0 c-54 0 -57 10 -57 167 l0 143 45 0
45 0 0 64 0 64 -62 7 c-119 12 -453 55 -507 65 -104 19 -163 7 -289 -58 -32
-17 -32 -18 -27 -72 13 -125 13 -251 0 -246 -7 2 -49 29 -93 60 -44 31 -84 56
-88 56 -5 0 3 -8 16 -17 49 -33 150 -126 150 -137 0 -6 -15 -11 -32 -11 -23 0
-34 -5 -36 -17 -3 -14 6 -19 37 -24 22 -4 45 -12 50 -18 8 -10 28 -305 27
-406 0 -25 6 -308 13 -630 12 -572 10 -688 -12 -702 -6 -4 -23 -4 -37 -1 -27
5 -27 5 -33 -73 -4 -42 -7 -124 -7 -181 0 -141 -2 -143 -99 -143 -84 0 -99 8
-119 60 -5 14 -12 174 -16 355 -3 182 -8 411 -11 510 -36 1294 -37 1464 -11
1542 10 29 16 59 14 67 -2 8 -41 48 -87 90 l-85 76 -593 0 -593 0 11 -27 c16
-44 21 -259 6 -272 -10 -8 -73 -5 -228 10 -118 11 -301 28 -406 38 -115 11
-199 23 -208 31 -12 10 -15 36 -15 116 l0 104 -65 0 -65 0 0 -100z m1198 75
c13 -4 51 -1 85 5 53 11 93 9 272 -9 213 -22 300 -42 316 -72 12 -24 23 -198
15 -252 -7 -46 -8 -47 -44 -47 -110 0 -689 63 -703 77 -12 12 -17 225 -6 276
6 29 12 37 25 33 9 -2 27 -7 40 -11z m877 -140 c24 -14 46 -34 50 -43 3 -9 9
-65 12 -124 l6 -108 -49 0 c-27 0 -55 4 -63 9 -19 12 -30 291 -12 291 7 0 32
-11 56 -25z m759 -52 c28 -9 61 -20 72 -26 12 -5 45 -6 73 -2 67 9 276 -4 295
-19 22 -17 35 -276 14 -293 -11 -10 -51 -8 -184 6 -93 11 -206 23 -251 26 -49
5 -87 13 -94 21 -12 15 -18 258 -7 287 9 21 17 21 82 0z m-2420 -123 c127 -16
287 -34 356 -40 255 -21 245 -13 237 -193 -8 -182 4 -168 -144 -166 -120 2
-125 3 -160 31 -30 23 -43 27 -67 22 -17 -4 -35 -7 -41 -7 -21 -1 -95 16 -95
22 0 3 -35 7 -78 9 -42 1 -78 7 -80 12 -6 17 -23 11 -44 -15 -22 -28 -38 -32
-38 -10 0 17 -9 19 -28 6 -20 -13 7 -51 36 -51 12 0 30 -4 40 -9 9 -6 38 -13
65 -16 26 -3 47 -10 47 -14 0 -5 16 -11 36 -14 20 -3 54 -15 77 -25 23 -11 76
-30 117 -42 41 -13 79 -27 85 -32 5 -4 23 -8 40 -8 18 0 35 -3 38 -6 6 -6 109
-16 157 -16 15 0 40 -40 40 -65 0 -7 5 -13 10 -13 6 0 10 -22 10 -50 l0 -50
-82 0 c-46 0 -135 5 -198 10 -63 5 -214 17 -335 25 -164 12 -224 20 -235 31
-15 14 -16 67 -8 354 0 30 -6 98 -15 150 -18 99 -22 182 -10 193 9 10 15 10
267 -23z m1005 -110 c197 -18 362 -39 439 -56 21 -4 23 -9 20 -57 -3 -43 -7
-53 -28 -64 -14 -7 -19 -13 -10 -13 10 -1 4 -9 -14 -25 -17 -13 -33 -22 -38
-19 -4 3 -8 2 -8 -3 0 -11 -46 -30 -105 -43 -27 -5 -60 -12 -72 -15 -13 -3
-23 -12 -23 -19 0 -18 -22 -26 -70 -26 -47 0 -110 -35 -110 -60 0 -10 -5 -20
-11 -22 -16 -5 -16 -133 0 -152 7 -8 10 -19 7 -24 -10 -17 17 -29 77 -36 36
-4 57 -2 57 4 0 5 -17 11 -37 11 l-38 2 40 7 40 7 -35 2 -35 3 30 9 c17 6 50
12 75 15 25 3 55 11 67 19 12 8 29 12 38 9 11 -5 18 0 21 13 6 21 44 50 44 33
0 -5 7 -10 15 -10 8 0 15 6 15 13 0 16 45 20 72 6 15 -8 22 -8 28 1 12 19 30
-46 30 -106 0 -51 -2 -54 -24 -54 -14 0 -37 -5 -53 -11 -29 -11 -237 -1 -483
23 -63 6 -129 10 -147 9 l-31 -1 -6 172 c-3 95 -8 242 -12 326 l-6 152 27 0
c15 0 129 -9 254 -20z m722 -125 c15 -48 22 -125 34 -390 29 -654 43 -1417 26
-1444 -7 -11 -14 -10 -39 8 -17 11 -37 21 -46 21 -51 0 -59 107 -78 1025 -11
571 -11 608 -2 742 l6 92 31 4 c48 6 48 6 68 -58z m-1804 -595 c59 0 171 -3
249 -7 l140 -6 -10 -33 c-6 -19 -14 -30 -20 -24 -4 4 -15 6 -22 3 -12 -4 -12
0 -4 23 l10 29 -20 -25 c-16 -21 -20 -22 -20 -7 0 10 -5 15 -10 12 -6 -4 -8
-10 -5 -15 3 -5 1 -11 -4 -15 -5 -3 -13 1 -18 8 -4 8 -19 17 -33 20 -24 6 -24
5 -6 -8 19 -15 19 -15 -2 -35 -12 -12 -22 -16 -22 -10 0 5 -6 9 -12 7 -7 -1
-12 3 -11 9 4 23 -39 1 -50 -25 -10 -24 -12 -41 -16 -111 -1 -20 -3 -22 -11
-10 -9 13 -10 13 -11 0 -3 -32 3 -65 13 -75 8 -7 9 -4 5 8 -4 11 -3 16 4 12 5
-4 7 -16 3 -27 -3 -12 -2 -18 3 -15 5 3 7 -8 5 -26 -5 -29 -3 -31 12 -18 19
16 21 8 5 -21 -9 -16 -8 -19 2 -13 9 6 11 4 6 -8 -4 -11 3 -18 24 -26 27 -9
33 -7 30 12 -1 5 2 6 7 3 5 -3 19 5 31 18 20 21 30 24 69 19 26 -2 57 -5 70
-6 12 -1 22 -5 22 -9 0 -5 9 -8 19 -8 10 0 21 -6 24 -13 6 -16 108 -38 152
-34 40 5 85 24 85 37 0 5 13 10 30 10 40 0 80 -36 80 -72 0 -32 -27 -50 -40
-27 -5 7 -12 10 -16 7 -4 -4 1 -19 10 -32 20 -32 20 -33 -4 -39 -11 -3 -20
-10 -20 -17 0 -7 8 -9 20 -5 11 4 20 2 20 -4 0 -6 12 -11 28 -11 15 0 35 -7
45 -14 16 -12 16 -14 1 -20 -34 -13 -73 -6 -79 14 -7 21 -27 29 -22 9 1 -6 -6
-13 -16 -14 -10 -2 -25 -9 -32 -15 -17 -14 -20 -40 -4 -40 5 0 7 5 4 10 -3 6
1 10 9 10 9 0 13 -6 10 -14 -4 -10 1 -14 15 -13 23 1 28 13 9 20 -7 3 -3 6 9
6 17 1 21 -3 16 -15 -5 -14 -1 -16 19 -12 16 3 25 0 25 -9 0 -9 -10 -12 -31
-8 -17 2 -73 9 -125 15 -52 6 -107 18 -122 27 -24 14 -32 15 -53 4 -33 -18
-188 -20 -194 -3 -7 23 -24 12 -20 -13 3 -14 1 -25 -3 -25 -5 0 -9 5 -9 11 0
6 -9 9 -20 6 -11 -3 -38 7 -64 23 l-44 28 -12 -27 c-10 -26 -17 -29 -78 -34
-68 -6 -142 -1 -153 11 -4 4 -12 157 -18 341 -12 345 -11 360 26 346 7 -2 61
-4 120 -5z m1514 -95 c1 -16 28 -27 49 -20 11 4 21 5 22 3 1 -2 4 -78 7 -170
5 -128 3 -164 -6 -156 -6 5 -15 22 -18 38 -3 16 -12 31 -19 33 -8 3 -17 22
-20 42 -5 25 -14 39 -28 42 -15 5 -17 8 -6 14 10 7 7 11 -9 15 -21 6 -28 16
-24 38 3 16 -10 46 -21 46 -6 0 -6 -6 2 -15 14 -16 10 -18 -14 -9 -9 3 -16 12
-16 18 0 7 -13 25 -29 40 -16 16 -29 36 -28 45 1 14 12 15 79 11 43 -3 79 -9
79 -15z m1227 -61 l103 -6 18 -36 c61 -121 140 -470 115 -509 -5 -9 -13 -15
-17 -14 -4 0 -117 1 -252 1 l-245 0 -10 24 c-14 39 -25 523 -12 539 12 14 70
14 300 1z m-3141 -106 c-3 -8 -6 -5 -6 6 -1 11 2 17 5 13 3 -3 4 -12 1 -19z
m1298 -398 c3 -5 1 -10 -4 -10 -6 0 -11 5 -11 10 0 6 2 10 4 10 3 0 8 -4 11
-10z m-9 -39 c5 -5 20 -11 34 -14 21 -4 20 -4 -7 -6 -18 0 -33 3 -33 8 0 6
-17 8 -37 6 -35 -4 -36 -4 -8 4 17 5 32 9 36 10 3 0 9 -3 15 -8z m-121 -31 c3
-5 1 -10 -4 -10 -6 0 -11 5 -11 10 0 6 2 10 4 10 3 0 8 -4 11 -10z m607 -49
c42 -21 63 -82 63 -181 0 -96 -6 -127 -32 -155 -10 -11 -29 -35 -42 -53 -38
-54 -122 -98 -144 -76 -10 10 17 44 35 44 10 0 31 13 48 30 17 17 26 30 20 30
-6 0 -9 4 -5 9 3 5 1 12 -5 16 -5 3 -10 2 -10 -4 0 -6 -12 -14 -27 -17 -16 -4
-34 -11 -40 -16 -7 -6 -21 -7 -30 -3 -16 7 -15 9 6 14 13 4 29 15 35 26 15 28
24 33 49 28 33 -5 57 20 72 76 16 60 4 84 -43 87 -17 1 -35 5 -41 9 -16 9 -13
25 3 19 24 -9 55 13 49 36 -3 12 0 20 6 20 16 0 61 -103 61 -140 0 -52 -22
-107 -47 -116 -18 -7 -21 -12 -13 -24 9 -13 15 -9 40 20 17 19 30 42 30 52 0
9 5 20 10 23 16 10 -6 169 -28 203 -20 31 -75 30 -108 -3 -28 -28 -37 -30 -52
-12 -8 10 -7 17 6 28 26 21 89 49 102 45 3 -1 17 -8 32 -15z m-1059 -188 c9
-18 26 -41 38 -52 57 -52 301 -73 310 -26 4 25 12 31 41 33 39 3 48 9 42 26
-3 7 9 28 26 45 16 18 30 41 30 51 0 14 8 18 43 18 23 0 49 2 57 6 8 3 25 -3
38 -14 l22 -18 -21 -36 c-18 -31 -19 -36 -5 -36 9 0 16 -3 16 -7 -1 -12 -60
-88 -60 -77 0 5 -17 10 -38 11 -31 1 -34 0 -21 -10 21 -16 9 -27 -53 -51 -62
-23 -93 -19 -94 14 -2 43 -5 46 -16 20 -6 -14 -10 -29 -9 -34 3 -15 -31 -46
-53 -46 -20 -1 -20 -1 -3 -14 10 -8 15 -20 11 -29 -3 -8 -1 -18 5 -22 6 -3 10
-21 10 -38 l-1 -32 -7 30 c-4 20 -9 26 -14 17 -6 -9 -13 -9 -28 -2 -13 7 -19
7 -19 0 0 -10 -12 -1 -70 51 -17 16 -36 29 -41 29 -5 0 -15 12 -22 27 -21 47
-81 105 -100 97 -9 -3 -14 -11 -10 -17 3 -6 7 -23 8 -39 2 -21 -1 -28 -11 -24
-8 3 -14 1 -14 -5 0 -6 -5 -7 -11 -3 -23 14 -129 20 -172 10 -21 -5 -27 -3
-21 5 4 8 3 9 -4 5 -16 -9 -15 -31 1 -44 18 -15 21 -72 4 -72 -21 0 -28 12
-16 27 13 15 -18 16 -116 3 -41 -5 -64 -4 -72 4 -17 17 -28 280 -13 317 7 16
18 29 24 29 6 0 20 3 32 6 19 5 22 0 28 -45 7 -57 36 -130 57 -148 8 -6 25
-14 39 -18 23 -5 31 2 74 62 27 37 66 90 85 116 l36 48 20 -58 c11 -32 28 -72
38 -90z m1299 -35 c3 -182 -2 -262 -18 -278 -6 -6 -36 -11 -67 -12 -49 -3 -55
-5 -40 -15 15 -11 15 -13 1 -13 -9 0 -18 -9 -21 -20 -4 -15 0 -20 14 -20 15 0
18 -6 15 -31 -3 -31 -19 -49 -43 -49 -7 0 -13 7 -13 15 0 8 4 15 10 15 5 0 7
7 4 15 -4 8 -9 13 -13 10 -17 -10 8 89 36 142 17 32 42 110 57 173 15 63 34
128 42 144 7 16 14 44 14 63 0 18 4 33 10 33 5 0 10 -72 12 -172z m-432 152
c0 -5 -4 -10 -10 -10 -5 0 -10 5 -10 10 0 6 5 10 10 10 6 0 10 -4 10 -10z m50
-1 c0 -6 -7 -9 -15 -5 -8 3 -15 0 -15 -6 0 -6 -3 -9 -6 -5 -9 9 5 27 22 27 8
0 14 -5 14 -11z m1745 -6 c15 -14 17 -35 13 -155 -3 -110 -7 -141 -20 -154
-13 -13 -20 -14 -39 -4 -30 16 -138 13 -181 -4 -32 -14 -113 -31 -188 -40 -19
-2 -47 -7 -61 -11 -35 -9 -37 1 -50 199 -7 118 -7 162 2 172 9 11 60 14 260
14 218 0 250 -2 264 -17z m-3875 -17 c0 -16 -18 -31 -27 -22 -8 8 5 36 17 36
5 0 10 -6 10 -14z m2080 -3 c0 -10 -20 -40 -20 -31 0 3 -3 13 -6 22 -4 11 -1
16 10 16 9 0 16 -3 16 -7z m-55 -25 c-9 -6 -19 -7 -22 -4 -4 3 -1 6 6 6 7 0 9
4 6 10 -4 6 1 7 11 3 15 -6 15 -7 -1 -15z m79 -90 c10 -40 4 -73 -18 -103 -14
-19 -15 -18 -11 18 5 39 -3 45 -35 25 -23 -15 -26 -12 -35 27 -5 23 -4 26 4
15 9 -13 11 -13 11 1 0 9 11 21 25 27 14 6 25 17 25 23 0 25 26 0 34 -33z m66
32 c0 -5 -2 -10 -4 -10 -3 0 -8 5 -11 10 -3 6 -1 10 4 10 6 0 11 -4 11 -10z
m-170 -91 c0 -11 -4 -17 -10 -14 -5 3 -10 13 -10 21 0 8 5 14 10 14 6 0 10 -9
10 -21z m-690 -124 c7 -14 17 -25 22 -25 4 0 8 -7 8 -15 0 -9 7 -18 15 -21 20
-8 19 -24 -1 -24 -8 0 -12 5 -9 11 4 6 -2 13 -14 16 -12 3 -21 10 -21 15 0 6
-8 8 -19 5 -16 -4 -18 1 -16 27 3 37 3 36 13 36 5 0 15 -11 22 -25z m870 1 c0
-11 -19 -15 -25 -6 -3 5 1 10 9 10 9 0 16 -2 16 -4z m-89 -59 c-16 -16 -26 0
-10 19 9 11 15 12 17 4 2 -6 -1 -17 -7 -23z m-506 3 c3 -5 -1 -10 -10 -10 -9
0 -13 5 -10 10 3 6 8 10 10 10 2 0 7 -4 10 -10z m30 -10 c3 -5 1 -10 -4 -10
-6 0 -11 5 -11 10 0 6 2 10 4 10 3 0 8 -4 11 -10z m-42 -13 c17 5 20 3 10 -7
-14 -15 -43 -6 -42 12 0 9 2 9 5 2 3 -7 15 -9 27 -7z m537 -16 c0 -17 -4 -33
-10 -36 -6 -4 -10 8 -10 29 0 20 5 36 10 36 6 0 10 -13 10 -29z m-694 -38 c-8
-8 -35 27 -36 46 0 7 10 2 21 -13 12 -15 18 -30 15 -33z m-301 37 c-3 -5 -12
-10 -20 -10 -8 0 -17 5 -20 10 -4 6 5 10 20 10 15 0 24 -4 20 -10z m1035 -49
c0 -22 -13 -71 -19 -71 -4 0 -5 18 -3 40 2 22 8 40 13 40 5 0 9 -4 9 -9z
m-977 -38 c17 -10 -29 -30 -73 -32 -25 -1 -46 -6 -48 -12 -2 -5 -8 -9 -13 -9
-9 0 -2 28 13 47 9 11 103 16 121 6z m14 -39 c-3 -3 -12 -4 -19 -1 -8 3 -5 6
6 6 11 1 17 -2 13 -5z m108 -16 c4 4 5 -6 1 -23 -12 -50 -20 -49 -30 4 -5 27
-4 31 7 22 8 -6 17 -7 22 -3z m982 -30 c-3 -8 -6 -5 -6 6 -1 11 2 17 5 13 3
-3 4 -12 1 -19z m-67 -92 c0 -18 -2 -17 -15 8 -19 36 -19 42 0 26 8 -7 15 -22
15 -34z m70 34 c0 -5 -2 -10 -4 -10 -3 0 -8 5 -11 10 -3 6 -1 10 4 10 6 0 11
-4 11 -10z m-1062 -27 c2 -9 -7 -13 -27 -13 -30 0 -39 9 -24 24 11 10 46 3 51
-11z m1060 -29 c0 -19 -2 -34 -4 -31 -8 8 -11 67 -4 67 5 0 8 -16 8 -36z
m-148 16 c0 -5 -4 -10 -10 -10 -5 0 -10 5 -10 10 0 6 5 10 10 10 6 0 10 -4 10
-10z m-9 -65 c-1 -5 -10 -11 -21 -11 -20 -1 -26 7 -13 20 10 9 34 3 34 -9z
m168 -52 c1 -47 7 -64 37 -105 20 -26 42 -48 49 -48 7 0 24 19 38 43 44 75 69
91 145 94 74 3 89 -4 146 -64 l35 -38 57 58 c43 44 62 57 85 57 42 0 46 -23
14 -89 -15 -31 -25 -67 -23 -79 3 -20 5 -19 26 12 13 19 34 60 47 91 12 32 29
63 36 70 8 7 48 16 89 20 l75 6 44 -55 c24 -31 49 -56 55 -56 6 0 32 23 57 52
44 50 48 52 106 56 69 5 104 -11 129 -59 21 -41 45 -36 92 20 38 44 45 49 94
54 36 3 62 0 81 -10 26 -13 28 -18 23 -49 -4 -18 -13 -47 -19 -64 l-13 -30
-25 47 c-14 26 -30 48 -36 50 -6 2 -18 -12 -27 -32 l-17 -36 35 -40 c21 -22
36 -50 36 -63 0 -90 -247 -541 -296 -541 -10 0 -19 5 -19 10 0 14 -51 65 -65
65 -5 0 -10 10 -10 23 0 13 -7 32 -16 43 -15 18 -15 18 -10 -6 l5 -25 -17 24
c-63 92 -198 189 -245 176 -14 -4 -17 -3 -10 2 12 9 -138 60 -197 67 -14 2
-29 4 -33 5 -5 0 -5 6 -1 13 5 8 2 9 -9 5 -10 -4 -17 -2 -17 4 0 6 -7 8 -16 5
-9 -4 -13 -2 -8 5 4 8 -1 9 -16 4 -15 -5 -20 -4 -16 4 4 6 2 12 -3 12 -17 2
-24 4 -64 18 -21 7 -40 11 -42 9 -2 -2 16 -17 40 -33 25 -17 45 -34 45 -38 0
-5 -23 7 -50 27 -28 20 -52 36 -55 36 -3 0 -24 14 -47 30 -43 32 -67 39 -52
17 5 -7 2 -5 -8 5 -9 10 -24 18 -33 18 -9 0 -14 4 -11 9 6 9 -71 27 -80 18 -3
-3 10 -14 29 -26 39 -24 57 -58 57 -109 0 -29 -7 -42 -30 -61 -17 -13 -30 -30
-30 -38 0 -21 -31 -49 -70 -62 -49 -17 -159 -32 -327 -46 l-83 -7 -1 29 c0 15
-2 47 -4 69 -3 28 -1 44 8 47 17 6 55 -25 49 -41 -2 -7 5 -12 18 -12 22 0 25
-27 5 -42 -5 -4 -1 -8 10 -8 12 0 26 -5 33 -12 9 -9 12 -8 12 6 0 12 5 16 15
12 8 -3 14 0 12 7 -1 7 5 13 13 13 8 1 21 2 29 3 11 1 11 4 1 16 -16 20 -5 49
16 41 17 -6 62 40 56 58 -2 5 2 12 9 16 16 11 2 30 -22 30 -12 0 -17 4 -14 11
4 6 -1 17 -11 24 -16 11 -17 17 -7 33 6 11 9 29 6 41 -3 12 -1 21 6 21 6 0 11
7 11 15 0 8 -4 15 -10 15 -5 0 -10 11 -10 24 0 13 -5 26 -12 28 -15 5 -17 56
-2 62 7 3 13 -12 17 -41 3 -28 11 -50 21 -55 9 -5 16 -18 16 -28 0 -11 6 -20
13 -21 6 0 20 -2 30 -4 14 -3 18 1 14 16 -3 12 0 19 9 19 8 0 14 5 14 11 0 5
-5 7 -11 3 -8 -4 -9 1 -4 15 4 13 1 28 -6 37 -17 21 -21 64 -8 97 6 15 12 27
14 27 1 0 3 -25 4 -57z m-2424 27 c-3 -5 1 -10 10 -10 12 0 15 -5 11 -16 -3
-9 -6 -22 -6 -30 0 -24 -65 -17 -95 10 l-26 24 33 10 c18 6 42 13 53 15 11 3
21 5 23 6 2 0 0 -3 -3 -9z m2375 -20 c0 -5 -5 -10 -11 -10 -5 0 -7 5 -4 10 3
6 8 10 11 10 2 0 4 -4 4 -10z m20 -40 c0 -5 -4 -10 -10 -10 -5 0 -10 5 -10 10
0 6 5 10 10 10 6 0 10 -4 10 -10z m-161 -40 c1 -14 7 -28 12 -31 6 -3 4 -11
-4 -18 -12 -9 -15 -8 -13 6 0 10 -9 22 -21 28 -13 5 -23 15 -23 22 0 7 -7 10
-15 7 -8 -4 -15 -1 -15 6 0 7 14 10 38 8 31 -2 38 -7 41 -28z m163 -4 c-2 -10
1 -15 6 -12 6 3 8 -2 5 -14 -7 -28 -23 -36 -23 -11 0 11 -4 23 -10 26 -17 11
-11 37 8 33 10 -2 16 -11 14 -22z m-1197 -59 c32 -34 45 -42 60 -36 38 15 39
9 4 -15 -20 -14 -48 -28 -63 -32 -14 -3 -26 -10 -26 -15 0 -5 -7 -6 -15 -3 -8
4 -15 1 -15 -5 0 -26 -199 -106 -304 -121 -73 -11 -97 -29 -26 -20 28 4 53 3
56 -2 3 -4 -5 -9 -18 -10 -44 -3 -73 -6 -83 -8 -5 -2 -18 0 -28 5 -10 4 -47
-3 -95 -20 -42 -14 -82 -27 -89 -27 -17 -2 -25 -26 -11 -34 6 -4 8 -3 5 3 -6
10 37 28 85 37 15 2 33 8 40 13 7 4 36 8 65 8 29 0 47 -3 40 -7 -7 -4 -12 -12
-12 -17 0 -12 -52 -60 -59 -54 -7 7 -76 -28 -76 -39 0 -6 -7 -7 -15 -4 -9 3
-18 -1 -21 -8 -3 -8 -23 -17 -45 -21 -45 -8 -52 -30 -18 -61 21 -19 21 -19 18
5 -3 14 2 26 10 29 16 5 6 -37 -13 -53 -6 -5 -10 -18 -8 -29 2 -11 0 -16 -7
-12 -6 4 -11 14 -11 22 0 8 -6 14 -13 14 -8 0 -28 15 -44 34 -29 32 -30 35
-15 52 16 18 16 18 -4 1 -11 -9 -24 -14 -29 -10 -4 5 -2 -2 4 -14 9 -19 9 -22
-3 -17 -10 4 -18 -7 -26 -33 -7 -21 -16 -43 -20 -48 -5 -6 -10 -25 -12 -44 -4
-41 -24 -53 -23 -14 0 19 -6 29 -19 31 -14 3 -17 0 -13 -12 9 -22 -2 -46 -20
-46 -8 0 -11 -4 -8 -10 3 -5 -1 -10 -10 -10 -9 0 -18 -12 -22 -31 -4 -22 -10
-28 -21 -24 -20 7 -34 -15 -20 -32 8 -10 3 -13 -23 -14 -19 -1 -37 -1 -41 0
-5 0 -8 -4 -8 -9 0 -6 5 -10 11 -10 8 0 8 -5 -1 -15 -7 -8 -20 -15 -30 -15
-10 0 -21 -7 -24 -16 -3 -8 -10 -12 -16 -9 -5 3 -10 1 -10 -4 0 -6 6 -11 13
-11 6 -1 2 -6 -11 -13 -12 -7 -19 -16 -16 -20 4 -4 2 -7 -4 -7 -7 0 -12 2 -12
5 0 11 33 70 49 89 16 18 14 19 -46 13 -68 -7 -105 -1 -81 14 7 5 35 9 61 9
36 0 46 3 41 13 -6 8 -3 8 9 -1 9 -8 24 -12 34 -9 14 4 13 5 -4 6 -17 1 -21 5
-16 18 4 11 3 14 -5 9 -7 -4 -12 -3 -12 3 0 5 9 13 20 16 25 8 26 21 3 34 -10
5 -15 12 -12 15 3 4 17 -3 32 -14 14 -11 30 -20 35 -20 6 0 29 28 51 63 23 34
53 79 67 101 24 35 25 42 14 80 -7 22 -13 50 -14 62 -1 11 -5 25 -9 31 -4 7
-3 14 3 18 5 3 10 1 10 -5 0 -6 6 -10 13 -9 24 3 37 -1 37 -12 0 -6 -7 -9 -14
-6 -10 4 -13 1 -9 -9 3 -7 0 -14 -5 -14 -7 0 -6 -10 3 -26 7 -15 11 -33 8 -40
-6 -16 5 -18 27 -4 13 8 13 13 2 30 -7 11 -10 26 -6 32 5 7 2 8 -7 3 -12 -8
-12 -6 0 8 22 27 39 21 35 -13 -2 -16 1 -30 7 -30 6 0 8 4 4 9 -3 5 2 17 11
25 14 15 13 17 -15 29 -28 12 -35 32 -7 21 6 -2 12 5 14 18 1 13 6 52 12 88 6
36 11 70 12 75 1 6 -2 42 -6 82 -6 63 -5 73 11 81 27 14 148 26 228 23 58 -2
79 -7 122 -33 33 -20 56 -42 62 -60 12 -35 21 -35 52 -2 13 15 49 46 79 70
l55 44 85 0 84 0 41 -43z m231 -9 c-9 -12 -16 -17 -16 -10 0 7 -4 11 -8 8 -10
-6 -8 -50 2 -81 4 -11 0 -7 -9 8 -9 16 -19 27 -21 24 -6 -6 17 -49 31 -59 6
-4 13 3 17 15 5 15 6 12 3 -11 -3 -20 -1 -31 5 -27 6 4 13 -1 16 -10 4 -10 14
-15 25 -12 12 3 17 1 12 -6 -4 -6 2 -8 15 -5 17 5 27 -1 43 -24 12 -17 36 -36
53 -44 23 -10 26 -13 11 -14 -11 0 -36 13 -56 29 -20 17 -48 33 -62 36 -14 4
-31 13 -38 21 -6 8 -18 14 -25 14 -21 0 -73 87 -67 111 6 23 52 61 64 53 5 -3
9 0 9 7 0 7 3 10 6 6 3 -3 -1 -16 -10 -29z m-1475 0 c2 -40 -2 -52 -26 -77
-21 -22 -27 -23 -50 -13 l-26 12 30 44 c41 59 70 72 72 34z m2267 -10 c9 -9
12 -9 12 0 0 9 5 10 18 4 9 -5 23 -7 30 -5 15 6 15 1 1 -30 -8 -17 -8 -30 -1
-44 15 -28 -1 -51 -19 -27 -17 24 -89 31 -89 9 0 -8 9 -20 21 -28 20 -15 20
-15 -10 -22 -35 -8 -34 -5 -21 -39 9 -25 8 -26 -23 -26 -28 0 -34 5 -43 35 -8
27 -8 35 3 39 19 8 16 24 -4 29 -16 4 -16 5 1 12 13 6 21 4 24 -3 5 -15 32
-16 32 -2 0 6 -4 10 -10 10 -19 0 -10 21 13 30 17 7 18 9 5 9 -18 1 -26 40
-11 54 11 11 58 8 71 -5z m487 -108 c3 -5 1 -10 -5 -10 -6 0 -8 -4 -5 -10 3
-5 1 -10 -4 -10 -6 0 -11 2 -11 4 0 2 -3 11 -6 20 -7 18 21 23 31 6z m-2725
-102 c0 -5 7 -8 15 -8 11 0 15 -11 15 -41 0 -45 28 -94 60 -104 14 -4 20 -15
20 -36 0 -17 5 -39 11 -51 18 -33 5 -30 -32 8 -33 33 -75 59 -92 55 -20 -4
-40 34 -42 77 -2 50 -12 82 -26 82 -15 0 -22 69 -8 86 11 14 17 11 45 -23 19
-21 33 -41 34 -45z m126 15 c15 -16 21 -29 14 -31 -13 -5 -37 14 -51 40 -15
28 8 22 37 -9z m1739 -34 c-4 -5 -1 -9 6 -9 20 0 78 -43 84 -61 4 -11 13 -15
25 -12 11 3 20 1 20 -5 0 -5 15 -17 33 -26 l32 -17 -55 5 c-30 2 -79 10 -108
16 -45 10 -53 15 -49 31 3 10 1 22 -4 25 -10 6 -12 57 -3 67 10 9 25 -3 19
-14z m-922 4 c-7 -2 -21 -2 -30 0 -10 3 -4 5 12 5 17 0 24 -2 18 -5z m777 -52
c30 -11 70 -20 88 -21 17 0 32 -4 32 -10 0 -5 -6 -10 -13 -10 -27 0 -161 42
-181 57 -20 15 -20 15 -1 10 11 -4 45 -15 75 -26z m-1510 -37 c0 -13 9 -29 20
-36 11 -7 20 -17 20 -22 0 -4 -8 -2 -17 5 -15 12 -16 12 -9 -6 5 -11 8 -31 7
-43 -1 -16 6 -26 20 -29 16 -4 17 -8 7 -14 -29 -19 -45 -10 -43 26 0 21 -5 37
-13 40 -9 3 -13 14 -9 31 3 18 1 24 -9 20 -17 -7 -18 2 -2 36 15 31 28 27 28
-8z m610 -1 c0 -7 -7 -13 -16 -13 -11 0 -14 5 -10 16 3 9 6 21 6 27 0 16 20
-14 20 -30z m-930 -89 c0 -8 -5 -12 -10 -9 -6 4 -8 11 -5 16 9 14 15 11 15 -7z
m-117 -40 c3 -4 -5 -15 -18 -26 -14 -11 -25 -26 -25 -33 0 -20 -21 -30 -31
-14 -13 21 -11 28 16 54 24 24 45 31 58 19z m411 -15 c-3 -5 -1 -15 4 -22 17
-21 19 -63 4 -76 -12 -12 -13 -11 -7 8 4 14 1 28 -8 39 -16 18 -12 76 4 66 5
-3 7 -10 3 -15z m291 -29 c3 -5 -1 -10 -9 -10 -9 0 -16 5 -16 10 0 6 4 10 9
10 6 0 13 -4 16 -10z m-220 -10 c3 -5 1 -10 -4 -10 -6 0 -11 5 -11 10 0 6 2
10 4 10 3 0 8 -4 11 -10z m352 -12 c-3 -8 -6 -5 -6 6 -1 11 2 17 5 13 3 -3 4
-12 1 -19z m123 -11 c0 -7 -6 -21 -14 -32 -7 -11 -14 -24 -14 -28 -1 -23 -12
-17 -12 7 0 14 6 29 14 32 8 3 12 12 9 20 -3 8 0 14 6 14 6 0 11 -6 11 -13z
m-210 -15 c0 -5 -7 -9 -15 -9 -8 0 -12 4 -9 9 3 4 9 8 15 8 5 0 9 -4 9 -8z
m-350 -6 c0 -3 -4 -8 -10 -11 -5 -3 -10 -1 -10 4 0 6 5 11 10 11 6 0 10 -2 10
-4z m-31 -21 c1 -2 1 -8 0 -13 -2 -5 -17 0 -34 10 l-30 20 30 -7 c16 -4 32 -8
34 -10z m481 -5 c0 -5 -4 -10 -10 -10 -5 0 -10 5 -10 10 0 6 5 10 10 10 6 0
10 -4 10 -10z m-463 -22 c-3 -8 -6 -5 -6 6 -1 11 2 17 5 13 3 -3 4 -12 1 -19z
m329 -5 c-10 -10 -19 5 -10 18 6 11 8 11 12 0 2 -7 1 -15 -2 -18z m139 -3 c3
-5 -1 -10 -9 -10 -9 0 -16 5 -16 10 0 6 4 10 9 10 6 0 13 -4 16 -10z m99 -19
c3 -4 -7 -6 -22 -4 -25 4 -25 3 -10 -10 15 -11 18 -32 18 -113 1 -155 0 -176
-11 -217 -5 -20 -7 -42 -4 -47 3 -5 -3 -18 -13 -28 -11 -11 -24 -32 -30 -48
l-11 -29 3 32 c2 17 8 38 12 45 5 7 9 18 10 23 1 6 9 40 18 78 12 53 14 82 6
134 -6 46 -6 69 1 74 18 11 5 43 -19 49 -22 5 -60 60 -41 60 5 0 13 -10 18
-22 8 -21 8 -21 15 5 5 20 13 27 31 27 13 0 26 -4 29 -9z m-629 -49 c-8 -8
-25 10 -25 26 0 13 2 13 14 -4 8 -10 13 -21 11 -22z m378 18 c-6 -21 -37 -27
-48 -10 -3 6 1 10 9 10 9 0 16 5 16 10 0 6 6 10 14 10 9 0 12 -7 9 -20z m-413
-25 c0 -8 -2 -15 -4 -15 -2 0 -6 7 -10 15 -3 8 -1 15 4 15 6 0 10 -7 10 -15z
m290 -20 c0 -14 -4 -25 -10 -25 -11 0 -14 33 -3 43 11 11 13 8 13 -18z m340
-15 c0 -5 -2 -10 -4 -10 -3 0 -8 5 -11 10 -3 6 -1 10 4 10 6 0 11 -4 11 -10z
m-480 -60 c0 -5 -4 -10 -10 -10 -5 0 -10 5 -10 10 0 6 5 10 10 10 6 0 10 -4
10 -10z m-10 -56 c0 -13 -5 -24 -11 -24 -6 0 -9 6 -6 14 3 8 1 16 -5 18 -6 2
-8 10 -4 16 11 18 26 4 26 -24z m-50 7 c0 -6 -5 -13 -10 -16 -6 -4 -8 -11 -5
-16 4 -5 2 -9 -3 -9 -12 0 -24 29 -16 41 7 12 34 12 34 0z m3598 -88 c6 -15
12 -30 12 -34 0 -4 20 -43 45 -87 25 -44 45 -84 45 -88 0 -13 -100 159 -100
172 0 6 -6 17 -14 23 -18 15 -28 51 -12 45 6 -2 17 -16 24 -31z m-3714 5 c-3
-13 -13 -31 -21 -40 -8 -9 -12 -23 -8 -30 6 -10 5 -10 -5 -1 -11 10 -11 16 3
31 9 10 17 25 17 33 0 12 -2 12 -10 -1 -5 -8 -12 -11 -15 -8 -11 11 6 30 21
24 8 -3 14 -1 14 4 0 6 3 10 6 10 3 0 2 -10 -2 -22z m-68 -60 c16 -17 16 -20
3 -15 -9 3 -22 0 -29 -6 -10 -9 -11 -9 -6 1 11 18 -24 15 -38 -4 -13 -17 -46
-9 -46 12 0 37 86 46 116 12z m1084 2 c0 -5 -5 -10 -11 -10 -5 0 -7 5 -4 10 3
6 8 10 11 10 2 0 4 -4 4 -10z m-35 -20 c-3 -5 -11 -10 -16 -10 -6 0 -7 5 -4
10 3 6 11 10 16 10 6 0 7 -4 4 -10z m-105 -50 c0 -5 -5 -10 -11 -10 -5 0 -7 5
-4 10 3 6 8 10 11 10 2 0 4 -4 4 -10z m-104 -27 c-15 -8 -33 -12 -39 -10 -6 2
2 10 18 19 38 18 58 10 21 -9z m56 -28 c-38 -32 -51 -32 -21 0 13 13 30 25 37
25 8 0 0 -11 -16 -25z m-921 -18 c-10 -9 -11 -8 -5 6 3 10 9 15 12 12 3 -3 0
-11 -7 -18z m2459 3 c-19 -12 -30 -12 -30 -1 0 10 31 20 40 14 2 -2 -2 -8 -10
-13z m-2486 -16 c12 -5 13 -10 4 -30 -10 -22 -40 -35 -37 -16 4 21 -3 32 -18
32 -15 0 -16 -2 -3 -10 8 -5 11 -13 6 -17 -4 -4 -14 1 -22 11 -11 16 -11 21
-1 28 14 9 49 10 71 2z m2386 -84 c0 -5 -7 -10 -16 -10 -8 0 -12 -5 -8 -11 4
-7 -2 -9 -17 -7 -13 2 -30 -4 -37 -12 -11 -13 -12 -12 -10 5 3 12 11 19 22 18
11 -1 25 5 33 13 17 16 33 18 33 4z m-2487 -73 c-3 -6 -1 -7 5 -3 7 4 12 13
12 21 0 8 9 13 20 12 26 -2 26 -27 0 -34 -11 -3 -20 -10 -20 -15 0 -5 -5 -6
-12 -2 -7 5 -8 3 -4 -5 5 -7 14 -10 22 -7 8 3 14 1 14 -4 0 -28 -40 -11 -53
23 -7 19 -37 24 -37 5 0 -6 -3 -8 -7 -4 -11 11 -10 59 2 73 7 9 17 4 37 -19
15 -17 25 -35 21 -41z m11 66 c-5 -5 -12 -12 -16 -18 -4 -6 -8 -2 -8 8 0 9 7
17 17 17 9 0 12 -3 7 -7z m2889 -40 c-3 -7 -9 -13 -13 -13 -4 0 -10 6 -13 13
-3 7 3 13 13 13 10 0 16 -6 13 -13z m-2929 -98 c7 -28 0 -49 -13 -40 -5 2 -6
16 -3 30 2 15 0 25 -7 25 -7 0 -10 -4 -6 -9 3 -5 1 -12 -5 -16 -11 -7 -14 18
-3 28 14 15 31 6 37 -18z m1533 19 c-3 -3 -12 -4 -19 -1 -8 3 -5 6 6 6 11 1
17 -2 13 -5z m2672 -163 c-2 -6 -10 2 -17 17 -11 25 -11 25 4 10 9 -9 15 -21
13 -27z m18 -23 c-3 -8 -6 -5 -6 6 -1 11 2 17 5 13 3 -3 4 -12 1 -19z m43 -48
c6 -11 8 -20 6 -20 -3 0 -10 9 -16 20 -6 11 -8 20 -6 20 3 0 10 -9 16 -20z
m50 -16 c0 -8 5 -12 10 -9 6 3 10 1 10 -4 0 -6 -7 -11 -15 -11 -8 0 -15 4 -15
9 0 5 -3 17 -7 27 -4 12 -3 15 5 10 7 -4 12 -14 12 -22z"/>
<path d="M2145 2890 c-3 -5 -1 -10 4 -10 6 0 11 5 11 10 0 6 -2 10 -4 10 -3 0
-8 -4 -11 -10z"/>
<path d="M2810 3333 c0 -13 29 -38 35 -31 3 3 -4 13 -15 23 -11 10 -20 13 -20
8z"/>
<path d="M2220 2366 c0 -2 7 -6 15 -10 8 -3 15 -1 15 4 0 6 -7 10 -15 10 -8 0
-15 -2 -15 -4z"/>
<path d="M2971 2234 c0 -11 3 -14 6 -6 3 7 2 16 -1 19 -3 4 -6 -2 -5 -13z"/>
<path d="M3930 1711 c-16 -31 -12 -46 20 -77 16 -16 30 -34 30 -40 0 -21 29
-24 39 -5 8 13 3 34 -19 79 -30 64 -51 77 -70 43z"/>
<path d="M3082 1698 c-5 -7 -17 -29 -27 -48 -10 -19 -23 -38 -29 -42 -18 -13
3 -9 23 4 22 14 64 -13 81 -52 6 -14 20 -31 31 -39 12 -7 18 -8 15 -3 -9 15
19 33 40 25 15 -5 13 0 -9 28 -15 19 -45 58 -67 87 -23 28 -42 52 -44 52 -2 0
-8 -6 -14 -12z m108 -134 c0 -8 -4 -12 -10 -9 -5 3 -10 10 -10 16 0 5 5 9 10
9 6 0 10 -7 10 -16z"/>
<path d="M4100 1454 c-20 -51 40 -112 85 -87 15 9 14 13 -8 39 -13 16 -29 39
-36 52 -15 29 -29 28 -41 -4z"/>
<path d="M3782 1438 c-17 -17 -15 -36 9 -74 21 -34 60 -46 74 -24 6 10 -53
110 -65 110 -3 0 -11 -5 -18 -12z"/>
<path d="M2945 1360 c3 -5 8 -10 11 -10 2 0 4 5 4 10 0 6 -5 10 -11 10 -5 0
-7 -4 -4 -10z"/>
<path d="M2710 1329 c0 -5 5 -7 10 -4 6 3 10 8 10 11 0 2 -4 4 -10 4 -5 0 -10
-5 -10 -11z"/>
<path d="M1437 1588 c-29 -39 -58 -95 -34 -65 14 17 53 25 43 8 -3 -5 1 -11 9
-15 18 -6 45 2 45 15 0 4 6 6 14 3 30 -11 27 19 -5 52 -18 19 -36 34 -40 34
-5 0 -19 -15 -32 -32z"/>
<path d="M1026 1544 c-3 -9 -6 -33 -6 -55 0 -33 4 -41 24 -49 13 -5 27 -18 31
-29 8 -25 28 -27 46 -4 8 9 9 14 3 10 -15 -9 -38 18 -29 33 4 6 1 19 -7 28
-11 15 -11 15 3 5 9 -7 19 -10 23 -6 4 4 4 -1 0 -11 -5 -14 -4 -17 4 -12 7 4
12 1 12 -9 0 -10 5 -13 12 -9 7 5 9 2 6 -8 -4 -9 0 -15 8 -15 8 0 14 4 14 8 0
8 -125 139 -133 139 -3 0 -8 -7 -11 -16z"/>
<path d="M790 1368 c0 -6 7 -16 17 -23 18 -14 11 -51 -8 -39 -8 4 -9 3 -5 -5
4 -6 12 -9 17 -6 19 12 30 -7 12 -21 -10 -8 3 -4 29 8 27 12 44 24 40 27 -5 4
-12 15 -17 26 -8 18 -9 18 -13 -7 -2 -16 -8 -28 -13 -28 -6 0 -8 4 -4 9 3 5 1
12 -5 16 -5 3 -10 14 -10 24 0 10 -9 21 -20 24 -11 3 -20 0 -20 -5z"/>
<path d="M860 1374 c0 -10 53 -54 64 -54 6 0 -3 14 -19 30 -27 28 -45 38 -45
24z"/>
<path d="M890 1275 c-7 -8 -19 -15 -28 -15 -8 0 -13 -3 -9 -6 9 -9 45 5 51 21
7 19 2 19 -14 0z"/>
<path d="M940 1253 c0 -15 -2 -16 -10 -3 -5 8 -12 11 -16 8 -3 -4 0 -14 8 -22
14 -13 17 -12 26 10 7 15 8 24 2 24 -6 0 -10 -8 -10 -17z"/>
<path d="M786 1222 c-2 -4 4 -8 14 -8 10 0 16 4 14 8 -3 4 -9 8 -14 8 -5 0
-11 -4 -14 -8z"/>
<path d="M900 1156 c0 -2 7 -9 15 -16 9 -7 15 -8 15 -2 0 5 -7 12 -15 16 -8 3
-15 4 -15 2z"/>
<path d="M760 1125 c0 -8 2 -15 4 -15 2 0 6 7 10 15 3 8 1 15 -4 15 -6 0 -10
-7 -10 -15z"/>
<path d="M572 946 c4 -5 -2 -17 -14 -28 -12 -10 -18 -21 -14 -26 4 -4 13 0 19
9 7 9 18 18 26 20 10 4 9 8 -5 19 -11 8 -16 10 -12 6z"/>
<path d="M500 930 c-13 -8 -13 -10 2 -10 9 0 20 5 23 10 8 13 -5 13 -25 0z"/>
<path d="M515 850 c3 -5 8 -10 11 -10 2 0 4 5 4 10 0 6 -5 10 -11 10 -5 0 -7
-4 -4 -10z"/>
<path d="M2568 1593 c6 -2 18 -2 25 0 6 3 1 5 -13 5 -14 0 -19 -2 -12 -5z"/>
<path d="M2620 1570 c0 -5 7 -10 16 -10 8 0 12 5 9 10 -3 6 -10 10 -16 10 -5
0 -9 -4 -9 -10z"/>
<path d="M4515 4590 c3 -5 10 -10 16 -10 5 0 9 5 9 10 0 6 -7 10 -16 10 -8 0
-12 -4 -9 -10z"/>
<path d="M4557 1750 c-18 -26 -12 -51 20 -81 l24 -24 -3 59 c-3 64 -17 80 -41
46z"/>
<path d="M0 791 c0 -19 5 -31 13 -31 17 0 16 52 0 58 -9 2 -13 -7 -13 -27z"/>
<path d="M4417 253 c-3 -5 3 -16 13 -26 17 -17 18 -17 18 8 0 23 -21 35 -31
18z"/>
</g>
</svg>
